#!OML:ASF E:\emotionWalksFemale\Project 1\Capture day 1\Session 1\Female1.ASF
:FULLY-SPECIFIED
:DEGREES
1892
root 9.12594 15.271 -37.6117 0.00874458 -14.7957 -0.408529
lowerback 9.08772 -0.278899 0.91675
upperback -4.76809 -0.208244 0.50899
thorax -10.2199 -0.144079 0.0670316
lowerneck -6.19542 4.7347 1.1741
upperneck 12.4862 6.64575 -2.88179
head 4.90332 3.13528 -0.674547
rclavicle 1.15047e-014 -7.35503e-015
rhumerus -48.2478 2.73046 -82.161
rradius 38.6169
rwrist 13.8166
rhand -13.869 -52.3863
rfingers 7.12502
rthumb 12.2555 -82.0072
lclavicle 1.15047e-014 -7.35503e-015
lhumerus -43.458 0.891338 84.04
lradius 36.2238
lwrist -14.641
lhand -6.81741 -28.8027
lfingers 7.12502
lthumb 19.0464 0.284729
rfemur -2.38346 11.1605 30.8959
rtibia 26.1421
rfoot -22.5065 -29.2056
rtoes 8.00698
lfemur -14.3279 -11.786 -16.9769
ltibia 33.9314
lfoot -21.8217 12.06
ltoes -39.2829
1893
root 9.11498 15.2698 -37.62 0.0797645 -14.819 -0.455922
lowerback 9.1564 -0.254557 1.10147
upperback -4.84336 -0.16098 0.382275
thorax -10.3454 -0.139845 -0.180467
lowerneck -6.26555 4.67004 1.37392
upperneck 12.6032 6.53673 -2.85986
head 4.95459 3.09008 -0.703528
rclavicle 5.397e-014 8.94531e-015
rhumerus -48.3122 2.55791 -82.398
rradius 38.5948
rwrist 13.7934
rhand -13.8297 -51.9442
rfingers 7.12502
rthumb 12.2934 -81.5628
lclavicle 5.397e-014 8.94531e-015
lhumerus -43.6233 0.855421 83.7631
lradius 36.4608
lwrist -14.7837
lhand -6.63483 -28.739
lfingers 7.12502
lthumb 19.222 0.331067
rfemur -2.46025 11.3075 30.9979
rtibia 26.1286
rfoot -22.4667 -29.2686
rtoes 7.97644
lfemur -14.4975 -11.6324 -16.8483
ltibia 34.0304
lfoot -21.5596 12.1147
ltoes -40.584
1894
root 9.1034 15.2683 -37.629 0.114002 -14.8375 -0.433639
lowerback 9.13439 -0.193118 0.985755
upperback -4.82367 -0.0930708 0.396984
thorax -10.3091 -0.098342 -0.111935
lowerneck -6.39163 4.63144 1.44849
upperneck 12.5766 6.48244 -2.91852
head 4.97082 3.06226 -0.734074
rclavicle -8.12905e-014 -1.00386e-014
rhumerus -48.2375 2.46149 -82.2724
rradius 38.6538
rwrist 14.2195
rhand -13.4279 -51.7025
rfingers 7.12502
rthumb 12.6807 -81.2975
lclavicle -8.12905e-014 -1.00386e-014
lhumerus -43.3706 0.695886 83.846
lradius 36.2653
lwrist -14.6519
lhand -6.55787 -28.5735
lfingers 7.12502
lthumb 19.296 0.489152
rfemur -2.4874 11.4385 31.0443
rtibia 26.0612
rfoot -22.3429 -29.4002
rtoes 7.44306
lfemur -14.6027 -11.5538 -16.7956
ltibia 34.0922
lfoot -21.9099 11.8626
ltoes -39.5513
1895
root 9.09366 15.2645 -37.637 0.0229246 -14.8647 -0.350472
lowerback 9.10448 -0.168368 0.904244
upperback -4.73312 -0.0745266 0.36698
thorax -10.1903 -0.0843521 -0.102054
lowerneck -6.40441 4.652 1.38969
upperneck 12.4262 6.49385 -2.78149
head 4.92032 3.07555 -0.683431
rclavicle 6.34869e-015 3.67752e-015
rhumerus -47.9991 1.95552 -81.714
rradius 38.5778
rwrist 16.0183
rhand -14.7236 -53.4847
rfingers 7.12502
rthumb 11.4313 -83.1531
lclavicle 6.34869e-015 3.67752e-015
lhumerus -43.1894 0.630916 83.8223
lradius 36.2445
lwrist -14.505
lhand -6.44103 -28.2429
lfingers 7.12502
lthumb 19.4084 0.808495
rfemur -2.37512 11.5293 31.0363
rtibia 25.975
rfoot -22.3623 -29.4526
rtoes 7.52009
lfemur -14.5375 -11.4086 -16.8442
ltibia 34.1438
lfoot -22.231 11.5662
ltoes -38.2767
1896
root 9.0843 15.271 -37.6426 -0.115777 -14.8463 -0.302074
lowerback 9.26902 -0.137358 0.75999
upperback -4.73029 -0.0452824 0.419975
thorax -10.2846 -0.0584215 0.0311794
lowerneck -6.42444 4.62391 1.30176
upperneck 12.501 6.45785 -2.70332
head 4.94051 3.05764 -0.646328
rclavicle 3.27746e-014 2.98177e-015
rhumerus -48.1483 2.54938 -82.1249
rradius 38.7662
rwrist 14.2941
rhand -13.1153 -51.9004
rfingers 7.12502
rthumb 12.982 -81.4765
lclavicle 3.27746e-014 2.98177e-015
lhumerus -43.2021 0.610169 83.8885
lradius 36.2444
lwrist -14.4758
lhand -6.35032 -28.3426
lfingers 7.12502
lthumb 19.4956 0.69999
rfemur -2.17658 11.5849 31.058
rtibia 25.8643
rfoot -22.5 -29.4082
rtoes 8.27485
lfemur -14.6096 -11.625 -16.7915
ltibia 34.2091
lfoot -22.5148 10.7348
ltoes -34.035
1897
root 9.07636 15.2742 -37.6471 -0.168844 -14.8381 -0.298822
lowerback 9.23853 -0.110971 0.773198
upperback -4.7225 -0.00793854 0.424661
thorax -10.2576 -0.041072 0.0219441
lowerneck -6.35569 4.58224 1.33333
upperneck 12.535 6.40289 -2.7313
head 4.94016 3.03074 -0.664833
rclavicle 4.98701e-014 8.54774e-015
rhumerus -48.2553 2.80561 -82.2833
rradius 38.8976
rwrist 13.6721
rhand -13.6699 -52.0897
rfingers 7.12502
rthumb 12.4474 -81.6991
lclavicle 4.98701e-014 8.54774e-015
lhumerus -43.239 0.479669 83.895
lradius 36.2363
lwrist -14.4728
lhand -6.26062 -28.6454
lfingers 7.12502
lthumb 19.5818 0.388474
rfemur -2.06958 11.6557 31.1066
rtibia 25.7517
rfoot -22.5145 -29.4137
rtoes 8.66593
lfemur -14.68 -11.6999 -16.739
ltibia 34.3211
lfoot -22.3885 10.3073
ltoes -31.3819
1898
root 9.06794 15.2741 -37.6523 -0.104299 -14.8595 -0.357614
lowerback 9.00095 -0.0859042 0.931549
upperback -4.67528 0.0402421 0.387388
thorax -10.0635 -0.0294457 -0.116263
lowerneck -6.26023 4.55333 1.44731
upperneck 12.4319 6.35788 -2.80597
head 4.89734 3.0116 -0.712489
rclavicle -2.45748e-014 -1.26228e-014
rhumerus -48.2101 2.72281 -82.3179
rradius 38.9231
rwrist 13.7248
rhand -13.7378 -52.1549
rfingers 7.12502
rthumb 12.3819 -81.7682
lclavicle -2.45748e-014 -1.26228e-014
lhumerus -43.1981 0.365587 83.8121
lradius 36.281
lwrist -14.4565
lhand -6.06626 -28.4739
lfingers 7.12502
lthumb 19.7687 0.540784
rfemur -2.06401 11.707 31.207
rtibia 25.6019
rfoot -22.4004 -29.4994
rtoes 8.62069
lfemur -14.8442 -11.5843 -16.6145
ltibia 34.4722
lfoot -22.6463 10.2932
ltoes -32.3049
1899
root 9.05874 15.27 -37.6625 -0.0122154 -14.7726 -0.429851
lowerback 8.9107 -0.101677 0.97962
upperback -4.68474 0.0299424 0.44966
thorax -10.0205 -0.0350655 -0.0749488
lowerneck -6.14345 4.53022 1.40369
upperneck 12.2968 6.33672 -2.87608
head 4.8365 2.99789 -0.732823
rclavicle -5.31997e-014 -1.39149e-014
rhumerus -48.1592 2.70426 -82.2094
rradius 38.9382
rwrist 13.8203
rhand -14.1656 -52.5051
rfingers 7.12502
rthumb 11.9694 -82.1429
lclavicle -5.31997e-014 -1.39149e-014
lhumerus -43.2205 0.49046 83.8181
lradius 36.369
lwrist -14.471
lhand -5.84549 -28.314
lfingers 7.12502
lthumb 19.9809 0.678702
rfemur -2.1145 11.7331 31.3379
rtibia 25.4945
rfoot -22.4448 -29.6183
rtoes 8.87929
lfemur -15.0924 -11.3275 -16.4508
ltibia 34.642
lfoot -22.5925 10.0823
ltoes -32.3814
1900
root 9.04888 15.2691 -37.6748 0.0710421 -14.673 -0.519763
lowerback 8.89039 -0.160095 0.973862
upperback -4.72484 -0.0374458 0.579246
thorax -10.0534 -0.0622745 0.0788901
lowerneck -5.90394 4.54478 1.20056
upperneck 12.1073 6.37091 -2.86073
head 4.73171 3.01153 -0.70171
rclavicle -3.95581e-014 7.95139e-015
rhumerus -48.0395 2.88619 -82.107
rradius 38.8358
rwrist 13.8504
rhand -14.4204 -52.5143
rfingers 7.12502
rthumb 11.7237 -82.1662
lclavicle -3.95581e-014 7.95139e-015
lhumerus -43.2847 0.71272 83.8758
lradius 36.4247
lwrist -14.3343
lhand -5.90644 -28.2465
lfingers 7.12502
lthumb 19.9223 0.752306
rfemur -2.19215 11.6546 31.4677
rtibia 25.4294
rfoot -22.4352 -29.5983
rtoes 9.22527
lfemur -15.3203 -11.0456 -16.2655
ltibia 34.7983
lfoot -22.413 9.88962
ltoes -32.8075
1901
root 9.03818 15.2704 -37.686 0.115937 -14.671 -0.608564
lowerback 8.6131 -0.212769 1.15705
upperback -4.56537 -0.0935488 0.543459
thorax -9.71356 -0.101344 -0.0547346
lowerneck -5.85003 4.58644 1.14684
upperneck 11.8287 6.41144 -2.76285
head 4.633 3.03902 -0.665567
rclavicle -3.31225e-014 -1.11319e-014
rhumerus -47.5852 2.95597 -82.3014
rradius 38.611
rwrist 13.7443
rhand -14.2542 -51.7965
rfingers 7.12502
rthumb 11.884 -81.4393
lclavicle -3.31225e-014 -1.11319e-014
lhumerus -42.9541 0.840875 83.6714
lradius 36.3705
lwrist -14.2137
lhand -6.04176 -28.2198
lfingers 7.12502
lthumb 19.7922 0.7925
rfemur -2.26366 11.4935 31.5765
rtibia 25.4067
rfoot -22.2049 -29.5003
rtoes 8.89498
lfemur -15.4602 -10.8218 -16.0911
ltibia 34.9135
lfoot -22.448 9.67314
ltoes -32.9757
1902
root 9.02994 15.2677 -37.6936 0.0731304 -14.7059 -0.600981
lowerback 8.78868 -0.187872 1.14981
upperback -4.61502 -0.0588026 0.529653
thorax -9.87221 -0.0853255 -0.070408
lowerneck -5.95738 4.59561 1.18516
upperneck 11.9713 6.42201 -2.74458
head 4.69563 3.04403 -0.66098
rclavicle -1.54058e-014 2.98177e-015
rhumerus -47.6128 2.99141 -82.3687
rradius 38.5543
rwrist 13.5412
rhand -14.0744 -51.3356
rfingers 7.12502
rthumb 12.0574 -80.9682
lclavicle -1.54058e-014 2.98177e-015
lhumerus -43.038 0.981078 83.5298
lradius 36.4466
lwrist -14.3199
lhand -6.06537 -28.2269
lfingers 7.12502
lthumb 19.7695 0.787718
rfemur -2.24552 11.4468 31.5976
rtibia 25.3829
rfoot -22.026 -29.5068
rtoes 8.20072
lfemur -15.4881 -10.6794 -16.0724
ltibia 34.9884
lfoot -22.6042 9.59644
ltoes -32.969
1903
root 9.02116 15.2652 -37.7061 0.0857777 -14.6378 -0.527659
lowerback 8.7071 -0.17035 1.11902
upperback -4.55187 -0.0490317 0.441426
thorax -9.75391 -0.0813038 -0.149596
lowerneck -6.17593 4.58728 1.26249
upperneck 12.101 6.39081 -2.62655
head 4.77016 3.03532 -0.632092
rclavicle 6.36856e-014 6.26172e-015
rhumerus -47.3816 2.62913 -82.2863
rradius 38.3972
rwrist 13.7895
rhand -14.0128 -51.4656
rfingers 7.12502
rthumb 12.1168 -81.0947
lclavicle 6.36856e-014 6.26172e-015
lhumerus -42.948 0.85497 83.4142
lradius 36.6096
lwrist -14.2844
lhand -6.0909 -28.1082
lfingers 7.12502
lthumb 19.745 0.908997
rfemur -2.29303 11.4501 31.5715
rtibia 25.3563
rfoot -22.0405 -29.5955
rtoes 7.93892
lfemur -15.6206 -10.4419 -16.0935
ltibia 35.0619
lfoot -22.4793 9.48191
ltoes -33.4108
1904
root 9.01319 15.2634 -37.7109 -0.0346449 -14.6785 -0.55114
lowerback 8.84498 -0.153393 1.17609
upperback -4.52366 -0.0187153 0.419669
thorax -9.80448 -0.0712529 -0.209908
lowerneck -6.3084 4.60611 1.2161
upperneck 12.2194 6.40108 -2.44354
head 4.82152 3.04669 -0.563255
rclavicle 4.52484e-014 2.5842e-015
rhumerus -47.2994 2.47129 -82.1886
rradius 38.294
rwrist 14.1848
rhand -14.2346 -51.9084
rfingers 7.12502
rthumb 11.9029 -81.5501
lclavicle 4.52484e-014 2.5842e-015
lhumerus -42.949 0.648898 83.4231
lradius 36.6915
lwrist -14.0302
lhand -6.04162 -28.0473
lfingers 7.12502
lthumb 19.7923 0.964981
rfemur -2.16075 11.4041 31.6458
rtibia 25.3428
rfoot -21.9001 -29.5943
rtoes 7.4651
lfemur -15.5182 -10.3666 -16.0705
ltibia 35.1497
lfoot -22.3689 9.54456
ltoes -34.236
1905
root 9.00299 15.2616 -37.7195 -0.160955 -14.6839 -0.60056
lowerback 9.00779 -0.164219 1.14819
upperback -4.48806 -0.028197 0.48849
thorax -9.86191 -0.0713863 -0.118776
lowerneck -6.35249 4.61776 1.15947
upperneck 12.2155 6.42781 -2.48136
head 4.82773 3.05454 -0.563006
rclavicle 2.16924e-014 -6.36111e-015
rhumerus -47.3809 2.82704 -82.2741
rradius 38.532
rwrist 13.9827
rhand -14.413 -52.2586
rfingers 7.12502
rthumb 11.7308 -81.9101
lclavicle 2.16924e-014 -6.36111e-015
lhumerus -42.8751 0.648849 83.4894
lradius 36.6586
lwrist -13.839
lhand -5.83542 -27.9919
lfingers 7.12502
lthumb 19.9906 0.999769
rfemur -2.00666 11.4525 31.784
rtibia 25.2951
rfoot -21.7285 -29.7157
rtoes 7.01463
lfemur -15.424 -10.3109 -16.0029
ltibia 35.2762
lfoot -22.4097 9.47617
ltoes -34.3965
1906
root 8.99389 15.2617 -37.7257 -0.172656 -14.6606 -0.529695
lowerback 8.96174 -0.1469 1.04699
upperback -4.48253 -0.0176466 0.503835
thorax -9.82808 -0.0589487 -0.0474148
lowerneck -6.35877 4.58695 1.20872
upperneck 12.201 6.39527 -2.59848
head 4.82918 3.03374 -0.608771
rclavicle 3.27995e-015 -1.78906e-015
rhumerus -47.5164 2.89533 -82.1222
rradius 38.7897
rwrist 14.2396
rhand -13.127 -51.6258
rfingers 7.12502
rthumb 12.9708 -81.2026
lclavicle 3.27995e-015 -1.78906e-015
lhumerus -42.8312 0.680326 83.5248
lradius 36.7018
lwrist -13.8083
lhand -5.51055 -27.8541
lfingers 7.12502
lthumb 20.3028 1.10468
rfemur -1.9788 11.518 31.7603
rtibia 25.2052
rfoot -21.6798 -29.8426
rtoes 6.62562
lfemur -15.5066 -10.2027 -16.049
ltibia 35.4412
lfoot -22.3544 9.39644
ltoes -34.0711
